<svg width="77" height="77" viewBox="0 0 77 77" fill="none" xmlns="http://www.w3.org/2000/svg">
<g clip-path="url(#clip0_586_8146)">
<path d="M38.4998 22.4583C43.9999 22.4583 44.9165 18.1596 44.9165 14.6158C44.9165 11.0719 42.55 4.8125 38.4998 4.8125C34.4496 4.8125 32.0832 11.0719 32.0832 14.6158C32.0832 18.1596 32.9998 22.4583 38.4998 22.4583ZM11.229 32.8854C11.229 28.8986 14.4609 25.6667 18.4478 25.6667H58.5519C62.5386 25.6667 65.7707 28.8986 65.7707 32.8854V35.6927L54.1113 44.4373C52.8167 45.4082 51.0659 45.506 49.6716 44.686L43.1288 40.8373C40.2551 39.1468 36.674 39.2206 33.8725 41.0282L28.2235 44.6728C26.9058 45.5227 25.2134 45.5269 23.8916 44.6831L11.229 36.6007V32.8854ZM11.229 42.3099V59.3542H8.82275C7.49383 59.3542 6.4165 60.4315 6.4165 61.7604C6.4165 63.0893 7.49383 64.1667 8.82275 64.1667H68.1769C69.5058 64.1667 70.5832 63.0893 70.5832 61.7604C70.5832 60.4315 69.5058 59.3542 68.1769 59.3542H65.7707V41.7083L56.9988 48.2873C54.151 50.4231 50.2994 50.6387 47.2316 48.834L40.6889 44.9853C39.3828 44.2169 37.7549 44.2506 36.4815 45.0723L30.8325 48.7166C27.9335 50.5871 24.2103 50.5961 21.3023 48.7397L11.229 42.3099Z" fill="#FF7A00"/>
</g>
<defs>
<clipPath id="clip0_586_8146">
<rect width="77" height="77" fill="white"/>
</clipPath>
</defs>
</svg>
